<?xml version="1.0" encoding="utf-8" ?><svg xmlns="http://www.w3.org/2000/svg" xmlns:xlink="http://www.w3.org/1999/xlink" width="1024" height="1024" viewBox="0 0 1024 1024"><path fill="white" d="M0 0L1024 0L1024 1024L0 1024L0 0Z"/><path fill="#146E51" d="M555.076 638.374C592.84 634.373 626.713 661.705 630.781 699.462C634.85 737.218 607.579 771.139 569.829 775.276C531.984 779.423 497.958 752.067 493.879 714.214C489.8 676.362 517.217 642.385 555.076 638.374Z"/><path fill="white" d="M557.18 658.185C584.062 655.295 608.197 674.744 611.088 701.626C613.979 728.508 594.53 752.644 567.648 755.535C540.765 758.426 516.629 738.977 513.738 712.094C510.847 685.211 530.297 661.075 557.18 658.185Z"/><path fill="#146E51" d="M817.566 639.884L837.085 640.006C835.047 646.488 832.922 652.943 830.711 659.369C826.344 670.619 821.935 684.449 817.947 695.954L791.26 773.598C784.905 773.421 778.547 773.373 772.191 773.455L737.219 670.573C732.694 685.162 727.26 699.296 722.257 713.714L701.865 773.496L682.38 773.596C679.907 765.155 676.164 755.177 673.324 746.647L649.018 674.514C645.708 664.538 640.389 649.828 637.969 639.927C644.656 639.723 652.574 639.969 659.357 640.004C667.704 667.412 677.04 694.277 685.789 721.533C688.371 729.577 691.402 737.388 693.697 745.498C697.546 732.699 702.374 719.439 706.725 706.75C714.338 684.594 721.757 662.372 728.982 640.087L745.844 639.987L781.913 747.099C786.524 731.616 791.826 716.917 796.928 701.629C803.666 681 810.546 660.418 817.566 639.884Z"/><path fill="#146E51" d="M451.023 640.004L471.119 640.014C471.809 653.753 471.239 672.266 471.257 686.267L471.485 773.764L455.736 773.714C430.549 742.069 404.963 710.743 378.986 679.743L379.264 773.691L359.203 773.494C359.887 729.701 358.982 684.142 359.024 640.162C363.842 640.054 368.762 640.06 373.59 640.014C398.875 671.879 424.553 703.431 450.616 734.662C450.947 703.111 451.083 671.558 451.023 640.004Z"/><path fill="#146E51" d="M225.512 639.928L246.021 639.994L245.931 712.934C259.979 697.605 273.811 681.467 287.915 666.108C295.781 657.542 303.316 648.287 311.428 639.958L336.166 639.968C318.879 658.132 301.24 678.095 284.219 696.676C290.538 706.823 305.881 726.811 313.303 736.78C320.841 746.882 333.676 763.35 339.969 773.698C333.992 774.145 322.287 773.66 315.918 773.622C301.803 754.291 286.161 731.029 271.468 712.586C262.985 721.802 254.565 731.076 246.208 740.407C245.653 750.798 245.97 763.074 245.999 773.591L225.581 773.546L225.512 639.928Z"/><path fill="#146E51" d="M428.571 300.365C424.295 297.501 420.937 294.974 417.841 290.761C411.118 281.612 411.197 267.424 417.847 258.234C421.987 252.515 428.277 248.73 435.269 247.749C461.088 243.921 476.75 272.623 460.71 292.183C458.005 295.447 454.687 298.149 450.943 300.138L451.087 383.313C450.834 389.272 450.786 424.721 451.717 429.068C444.935 436.342 436.154 444.391 428.8 451.252C428.96 428.197 428.996 405.142 428.906 382.086C429.373 375.976 429.058 367.73 429.083 361.385C429.15 345.032 428.56 328.858 428.551 312.475L428.571 300.365Z"/><path fill="white" d="M438.102 265.282C443.438 264.558 448.378 268.22 449.236 273.535C450.094 278.851 446.558 283.882 441.266 284.874C437.721 285.538 434.096 284.228 431.795 281.452C429.494 278.676 428.879 274.87 430.189 271.51C431.5 268.151 434.529 265.767 438.102 265.282Z"/><path fill="#55CB96" d="M451.532 399C460.143 389.856 471.481 379.511 480.66 370.604L526.557 325.859L560.479 292.988C570.928 282.895 584.548 268.984 597.055 262.007C612.949 253.142 633.596 247.518 651.71 246.911C659.851 246.662 667.998 247.17 676.045 248.429C630.762 256.9 613.36 271.146 581.297 302.437C570.273 313.161 559.332 323.97 548.477 334.863C522.219 361.03 495.168 386.653 468.74 412.672C463.144 418.181 457.494 423.751 451.717 429.068C450.786 424.721 450.834 389.272 451.087 383.313C451.496 388.542 451.48 393.757 451.532 399Z"/><path fill="#146E51" d="M487.394 401.924C496.036 401.829 505.024 402.173 513.471 404.86C549.522 416.761 574.978 453.5 598.366 481.888C622.585 511.283 636.91 523.646 675.381 531.206C675.959 531.297 678.098 531.379 678.157 532.15C677.37 532.982 665.071 532.336 663.292 532.051C635.326 531.651 602.211 520.196 583.321 499.268C564.398 478.304 547.332 455.367 527.519 434.855C514.508 421.385 501.499 413.42 487.394 401.924Z"/><path fill="#7C9993" d="M675.381 531.206C675.959 531.297 678.098 531.379 678.157 532.15C677.37 532.982 665.071 532.336 663.292 532.051C666.614 531.793 673.176 532.338 675.381 531.206Z"/><path fill="#C6C6C5" d="M513.139 399.616C512.591 399.572 511.283 399.617 511.031 399.031C511.675 398.082 517.154 398.768 518.136 398.88C558.416 399.495 582.438 421.212 608.993 448.314C630.153 469.912 648.488 495.532 671.969 514.759C679.072 520.575 688.081 524.878 696.35 528.771C666.564 527.839 640.761 517.83 620.801 495.225C605.106 477.45 589.304 459.592 573.487 441.934C554.313 420.527 540.827 408.311 513.139 399.616Z"/><path fill="#C2CBCC" d="M513.139 399.616C512.591 399.572 511.283 399.617 511.031 399.031C511.675 398.082 517.154 398.768 518.136 398.88C516.256 399.073 514.918 398.979 513.139 399.616Z"/><path fill="#55CB96" d="M505.328 437.792C508.83 440.149 516.932 449.308 520.083 452.735L440.482 530.922L437.482 533.518C434.662 533.522 431.822 533.384 429.001 533.28C428.964 526.27 428.907 519.72 428.534 512.726C434.984 505.584 446.003 496.673 453.346 489.628C470.854 472.531 488.182 455.252 505.328 437.792Z"/><path fill="#55CB96" d="M341.521 313.035C370.365 312.866 399.794 313.314 428.551 312.475C428.56 328.858 429.15 345.032 429.083 361.385C429.058 367.73 429.373 375.976 428.906 382.086C428.526 377.501 428.669 370.678 428.636 365.954L428.506 335.359C399.517 335.007 370.523 335.013 341.534 335.377L341.521 313.035Z"/><path fill="#55CB96" d="M527.427 462.359C530.614 464.587 538.976 474.018 541.861 477.183C536.625 483.343 526.252 492.915 520.173 498.787C508.173 510.281 496.306 521.913 484.574 533.681C480.06 533.938 474.353 533.799 469.75 533.815L454.4 533.806C463.394 524.73 472.445 515.711 481.553 506.75C496.996 491.768 512.143 477.686 527.427 462.359Z"/><path fill="#55CB96" d="M483.419 413.859C485.413 415.327 495.607 426.668 497.932 429.201C478.765 449.046 456.234 468.848 436.266 488.993L428.922 496.165C429.172 486.959 428.898 476.749 428.843 467.471C438.775 458.684 448.79 447.585 458.443 438.272C466.733 430.274 475.662 422.263 483.419 413.859Z"/><path fill="#146E51" d="M408.493 579.559C418.014 578.946 422.329 580.104 428.845 587.137C428.706 584.525 427.885 581.258 430.019 579.629C431.764 579.598 431.974 579.287 433.182 580.07C433.739 583.81 433.333 590.758 433.344 594.927C433.244 602.822 433.796 610.425 433.061 618.315C431.412 636.007 411.603 637.553 399.064 630.716C397.466 629.845 396.483 628.558 396.174 626.809L397.029 625.975C399.26 625.886 399.018 626.207 401.327 627.383C408.216 630.281 419.214 631.801 424.95 625.798C429.452 621.087 428.974 615.401 428.766 609.398C421.708 617.171 411.877 620.031 402.266 614.785C397.925 612.426 394.722 608.412 393.386 603.656C389.874 591.622 397.107 582.643 408.493 579.559Z"/><path fill="white" d="M409.847 583.595C433.093 581.911 435.155 608.128 416.622 612.97C393.317 614.749 390.739 588.488 409.847 583.595Z"/><path fill="#146E51" d="M289.498 579.699C300.326 576.962 311.323 583.524 314.055 594.354C316.787 605.183 310.22 616.176 299.39 618.904C288.566 621.629 277.581 615.068 274.851 604.245C272.12 593.423 278.677 582.435 289.498 579.699Z"/><path fill="white" d="M291.139 583.989C299.555 582.164 307.862 587.49 309.715 595.9C311.568 604.31 306.268 612.635 297.864 614.514C289.422 616.403 281.051 611.074 279.19 602.625C277.329 594.177 282.685 585.824 291.139 583.989Z"/><path fill="#146E51" d="M484.805 579.73C495.63 576.983 506.629 583.544 509.354 594.375C512.079 605.205 505.496 616.19 494.66 618.894C483.855 621.589 472.908 615.028 470.191 604.229C467.473 593.43 474.012 582.469 484.805 579.73Z"/><path fill="white" d="M485.388 584.055C490.861 582.454 496.771 583.93 500.848 587.917C504.925 591.903 506.533 597.779 505.055 603.286C503.577 608.793 499.242 613.074 493.717 614.483C485.378 616.61 476.874 611.661 474.602 603.361C472.33 595.061 477.129 586.472 485.388 584.055Z"/><path fill="#146E51" d="M807.136 579.459C818.149 577.905 828.338 585.571 829.896 596.584C831.453 607.597 823.79 617.788 812.778 619.35C801.76 620.912 791.563 613.245 790.005 602.226C788.446 591.208 796.117 581.014 807.136 579.459Z"/><path fill="white" d="M805.451 584.386C813.799 581.861 822.603 586.633 825.045 595.005C827.486 603.378 822.627 612.135 814.23 614.493C805.951 616.818 797.344 612.041 794.936 603.785C792.529 595.529 797.22 586.875 805.451 584.386Z"/><path fill="#146E51" d="M594.768 579.615C610.436 578.161 617.501 585.255 618.609 600.42L584.235 600.499C587.127 612.423 592.171 615.152 604.396 614.466C606.747 613.875 608.695 613.446 610.803 612.144C611.161 611.923 613.273 610.271 613.493 610.409C615.467 611.638 615.914 613.394 613.811 614.804C608.343 619.049 603.015 619.442 596.502 618.892C591.453 618.466 586.851 615.605 583.742 611.76C580.108 606.858 578.979 601.41 579.872 595.499C581.227 586.537 586.353 582.223 594.768 579.615Z"/><path fill="white" d="M595.792 583.588C606.681 582.673 611.562 586.013 613.99 596.762C610.646 596.893 607.473 596.907 604.125 596.917C597.629 596.958 591.132 596.933 584.636 596.842C585.763 589.189 588.342 585.92 595.792 583.588Z"/><path fill="#146E51" d="M359.282 579.551C374.741 578.38 383.004 584.446 383.152 600.519C371.808 600.384 360.462 600.349 349.116 600.414C351.604 612.104 357.809 616.466 369.935 614.411C373.368 613.244 374.983 612.526 377.807 610.058C379.264 609.181 380.354 612.3 379.869 612.984C373.326 622.198 354.516 620.611 348.482 611.499C340.712 599.765 345.017 583.707 359.282 579.551Z"/><path fill="white" d="M359.6 583.609C371.656 582.741 375.538 585.391 379.283 596.68L368.604 596.724C362.073 596.791 355.541 596.763 349.01 596.64C351.295 589.334 352.464 586.681 359.6 583.609Z"/><path fill="#146E51" d="M247.957 565.707C252.571 565.89 257.097 567.02 261.256 569.026C263.115 569.907 265.661 571.085 266.355 573.076L265.756 574.071C265.443 574.206 263.745 574.938 263.745 574.938C261.749 574.021 255.708 570.66 253.784 570.399C250.079 569.896 246.107 569.769 242.775 570.379C236.932 571.402 231.763 574.772 228.47 579.706C221.215 590.61 225.015 605.743 236.306 612.007C242.802 615.611 248.5 615.615 255.466 614.039C258.884 612.936 261.334 611.128 264.224 609.107L266.886 612.699C239.083 633.648 205.166 601.82 227.145 574.144C232.094 567.913 240.385 566.179 247.957 565.707Z"/><path fill="#146E51" d="M676.504 579.321C682.565 579.451 680.501 580.189 680.776 587.146C687.579 579.755 694.104 577.285 704.251 580.995C708.147 582.419 712.398 588.302 712.436 592.503C712.515 601.131 712.737 610.182 712.343 618.8C712.322 619.266 708.757 619.303 708.348 618.803C707.597 610.997 708.027 602.29 707.972 594.249C707.942 594.1 707.913 593.952 707.883 593.804L707.734 593.127C706.302 586.419 700.873 582.718 693.998 583.521C675.203 585.717 683.325 606.875 680.837 619.18C680.805 619.337 679.9 619.487 679.755 619.439C679.556 619.401 676.854 619.595 676.829 619.154C676.107 606.335 676.425 592.347 676.504 579.321Z"/><path fill="#146E51" d="M539.171 565.622L567.746 565.648C571.225 565.636 578.543 564.518 581.086 566.564C581.631 568.075 581.556 567.985 581.223 569.579C579.689 570.247 565.417 570.027 562.671 570.029C562.475 579.904 562.588 590.337 562.556 600.25C562.558 603.021 562.82 617.65 561.908 619.13C559.689 619.157 560.66 619.454 558.857 618.319C556.927 614.884 558.085 608.632 558.069 604.526L558.028 569.958C553.141 569.894 544.387 570.378 539.927 569.749C539.021 568.617 539.22 567.169 539.171 565.622Z"/><path fill="#146E51" d="M763.539 579.572C764.026 579.539 764.513 579.514 765 579.497C770.926 579.264 776.223 580.062 780.723 584.275C781.483 584.986 783.109 586.573 781.805 587.554C779.019 589.734 778.515 587.454 775.996 586.02C758.711 576.174 743.604 596.392 756.385 610.618C759.602 614.199 764.908 615.04 769.603 614.888C772.785 614.267 774.726 613.78 777.333 611.816C779.867 609.906 779.557 609.871 781.209 611.677C782.888 613.046 781.201 614.42 779.742 615.513C772.578 621.256 756.633 620.228 751.224 612.28C742.133 598.924 747.66 583.091 763.539 579.572Z"/><path fill="#146E51" d="M643.486 579.573C650.772 579.056 657.656 579.339 662.107 586.011C663.191 587.636 659.263 590.973 657.546 586.944C656.586 584.69 648.959 583.267 646.499 583.469C642.942 583.547 638.881 585.171 636.581 588.064C626.748 600.427 633.95 615.87 650.63 614.905C655.448 613.743 656.078 613.135 659.524 609.735C659.636 609.624 660.023 609.877 660.186 609.991C661.185 610.687 662.232 611.271 663.263 611.957C660.727 614.566 658.151 617.412 654.48 618.324C643.558 621.038 631.505 617.116 628.55 605.245C625.397 592.583 630.724 582.796 643.486 579.573Z"/><path fill="#146E51" d="M327.441 563.757C329.075 563.772 330.573 563.646 331.647 564.638C332.162 569.92 331.851 578.48 331.816 583.965L331.611 618.881C329.756 619.078 329.687 619.158 327.783 618.791C327.259 616.941 327.433 604.581 327.433 601.763L327.441 563.757Z"/><path fill="#146E51" d="M729.498 579.382C730.491 579.4 732.876 579.111 733.712 579.735C734.352 580.212 733.998 614.957 733.928 619.466C733.176 619.488 729.603 619.836 729.592 618.997C729.44 607.161 729.408 590.842 729.498 579.382Z"/><path fill="#146E51" d="M452.495 578.961C453.384 578.918 455.641 578.535 456.429 579.171C456.997 579.63 456.686 616.19 456.681 619.313C456.247 619.272 452.715 619.067 452.695 618.751C452.007 607.56 452.107 589.773 452.495 578.961Z"/><path fill="#146E51" d="M603.416 564.464C606.356 564.491 608.317 564.626 611.225 564.821C606.58 568.218 604.685 569.618 600.324 573.484C599.4 574.271 595.671 574.237 594.136 574.396C597.338 570.714 599.969 567.891 603.416 564.464Z"/><path fill="#146E51" d="M368.809 565.015C371.423 564.93 373.43 564.905 376.06 564.971C372.429 567.926 368.726 570.792 364.955 573.566C363.625 574.398 361.179 575.072 359.783 574.452C359.643 574.257 359.676 574.359 359.659 574.154C360.128 573.15 367.626 566.145 368.809 565.015Z"/><path fill="#146E51" d="M729.916 563.772C731.673 562.89 733.813 563.593 734.705 565.346C735.597 567.099 734.906 569.243 733.159 570.144C731.397 571.053 729.233 570.355 728.334 568.589C727.435 566.822 728.144 564.662 729.916 563.772Z"/><path fill="#146E51" d="M452.548 563.753C453.687 563.038 455.134 563.027 456.284 563.726C457.434 564.425 458.091 565.714 457.98 567.055C457.87 568.397 457.011 569.561 455.762 570.062C454.055 570.747 452.106 570.016 451.271 568.377C450.436 566.738 450.99 564.732 452.548 563.753Z"/></svg>