<svg xmlns="http://www.w3.org/2000/svg" width="360" height="320" viewBox="330 230 360 320">
  <path fill="#146E51" d="M428.571 300.365C424.295 297.501 420.937 294.974 417.841 290.761C411.118 281.612 411.197 267.424 417.847 258.234C421.987 252.515 428.277 248.73 435.269 247.749C461.088 243.921 476.75 272.623 460.71 292.183C458.005 295.447 454.687 298.149 450.943 300.138L451.087 383.313C450.834 389.272 450.786 424.721 451.717 429.068C444.935 436.342 436.154 444.391 428.8 451.252C428.96 428.197 428.996 405.142 428.906 382.086C429.373 375.976 429.058 367.73 429.083 361.385C429.15 345.032 428.56 328.858 428.551 312.475L428.571 300.365Z"/>
  <path fill="white" d="M438.102 265.282C443.438 264.558 448.378 268.22 449.236 273.535C450.094 278.851 446.558 283.882 441.266 284.874C437.721 285.538 434.096 284.228 431.795 281.452C429.494 278.676 428.879 274.87 430.189 271.51C431.5 268.151 434.529 265.767 438.102 265.282Z"/>
  <path fill="#55CB96" d="M451.532 399C460.143 389.856 471.481 379.511 480.66 370.604L526.557 325.859L560.479 292.988C570.928 282.895 584.548 268.984 597.055 262.007C612.949 253.142 633.596 247.518 651.71 246.911C659.851 246.662 667.998 247.17 676.045 248.429C630.762 256.9 613.36 271.146 581.297 302.437C570.273 313.161 559.332 323.97 548.477 334.863C522.219 361.03 495.168 386.653 468.74 412.672C463.144 418.181 457.494 423.751 451.717 429.068C450.786 424.721 450.834 389.272 451.087 383.313C451.496 388.542 451.48 393.757 451.532 399Z"/>
  <path fill="#146E51" d="M487.394 401.924C496.036 401.829 505.024 402.173 513.471 404.86C549.522 416.761 574.978 453.5 598.366 481.888C622.585 511.283 636.91 523.646 675.381 531.206C675.959 531.297 678.098 531.379 678.157 532.15C677.37 532.982 665.071 532.336 663.292 532.051C635.326 531.651 602.211 520.196 583.321 499.268C564.398 478.304 547.332 455.367 527.519 434.855C514.508 421.385 501.499 413.42 487.394 401.924Z"/>
  <path fill="#7C9993" d="M675.381 531.206C675.959 531.297 678.098 531.379 678.157 532.15C677.37 532.982 665.071 532.336 663.292 532.051C666.614 531.793 673.176 532.338 675.381 531.206Z"/>
  <path fill="#C6C6C5" d="M513.139 399.616C512.591 399.572 511.283 399.617 511.031 399.031C511.675 398.082 517.154 398.768 518.136 398.88C558.416 399.495 582.438 421.212 608.993 448.314C630.153 469.912 648.488 495.532 671.969 514.759C679.072 520.575 688.081 524.878 696.35 528.771C666.564 527.839 640.761 517.83 620.801 495.225C605.106 477.45 589.304 459.592 573.487 441.934C554.313 420.527 540.827 408.311 513.139 399.616Z"/>
  <path fill="#C2CBCC" d="M513.139 399.616C512.591 399.572 511.283 399.617 511.031 399.031C511.675 398.082 517.154 398.768 518.136 398.88C516.256 399.073 514.918 398.979 513.139 399.616Z"/>
  <path fill="#55CB96" d="M505.328 437.792C508.83 440.149 516.932 449.308 520.083 452.735L440.482 530.922L437.482 533.518C434.662 533.522 431.822 533.384 429.001 533.28C428.964 526.27 428.907 519.72 428.534 512.726C434.984 505.584 446.003 496.673 453.346 489.628C470.854 472.531 488.182 455.252 505.328 437.792Z"/>
  <path fill="#55CB96" d="M341.521 313.035C370.365 312.866 399.794 313.314 428.551 312.475C428.56 328.858 429.15 345.032 429.083 361.385C429.058 367.73 429.373 375.976 428.906 382.086C428.526 377.501 428.669 370.678 428.636 365.954L428.506 335.359C399.517 335.007 370.523 335.013 341.534 335.377L341.521 313.035Z"/>
  <path fill="#55CB96" d="M527.427 462.359C530.614 464.587 538.976 474.018 541.861 477.183C536.625 483.343 526.252 492.915 520.173 498.787C508.173 510.281 496.306 521.913 484.574 533.681C480.06 533.938 474.353 533.799 469.75 533.815L454.4 533.806C463.394 524.73 472.445 515.711 481.553 506.75C496.996 491.768 512.143 477.686 527.427 462.359Z"/>
  <path fill="#55CB96" d="M483.419 413.859C485.413 415.327 495.607 426.668 497.932 429.201C478.765 449.046 456.234 468.848 436.266 488.993L428.922 496.165C429.172 486.959 428.898 476.749 428.843 467.471C438.775 458.684 448.79 447.585 458.443 438.272C466.733 430.274 475.662 422.263 483.419 413.859Z"/>
</svg>
